<mxfile host="app.diagrams.net" modified="2022-11-10T10:03:09.143Z" agent="5.0 (Windows)" etag="LJU_ENNKwX4zdWrqZQTN" version="20.5.3" type="github">
  <diagram id="NTdx5O6KQDiZ9lMYyFNf" name="Page-1">
    <mxGraphModel dx="1374" dy="753" grid="1" gridSize="10" guides="1" tooltips="1" connect="1" arrows="1" fold="1" page="1" pageScale="1" pageWidth="850" pageHeight="1100" math="0" shadow="0">
      <root>
        <mxCell id="0" />
        <mxCell id="1" parent="0" />
        <mxCell id="I_kCTtkcu6_9nDNnF5j1-3" style="edgeStyle=orthogonalEdgeStyle;rounded=0;orthogonalLoop=1;jettySize=auto;html=1;entryX=0.5;entryY=0.113;entryDx=0;entryDy=0;entryPerimeter=0;" edge="1" parent="1" source="I_kCTtkcu6_9nDNnF5j1-1" target="I_kCTtkcu6_9nDNnF5j1-4">
          <mxGeometry relative="1" as="geometry">
            <mxPoint x="400" y="460" as="targetPoint" />
            <Array as="points">
              <mxPoint x="400" y="390" />
              <mxPoint x="420" y="390" />
              <mxPoint x="420" y="420" />
              <mxPoint x="400" y="420" />
            </Array>
          </mxGeometry>
        </mxCell>
        <mxCell id="I_kCTtkcu6_9nDNnF5j1-1" value="" style="sketch=0;outlineConnect=0;fontColor=#232F3E;gradientColor=none;fillColor=#4D27AA;strokeColor=none;dashed=0;verticalLabelPosition=bottom;verticalAlign=top;align=center;html=1;fontSize=12;fontStyle=0;aspect=fixed;pointerEvents=1;shape=mxgraph.aws4.router;" vertex="1" parent="1">
          <mxGeometry x="360" y="280" width="78" height="78" as="geometry" />
        </mxCell>
        <mxCell id="I_kCTtkcu6_9nDNnF5j1-4" value="" style="ellipse;shape=cloud;whiteSpace=wrap;html=1;" vertex="1" parent="1">
          <mxGeometry x="339" y="490" width="120" height="150" as="geometry" />
        </mxCell>
        <mxCell id="I_kCTtkcu6_9nDNnF5j1-5" value="" style="endArrow=none;html=1;rounded=0;" edge="1" parent="1" source="I_kCTtkcu6_9nDNnF5j1-1">
          <mxGeometry width="50" height="50" relative="1" as="geometry">
            <mxPoint x="480" y="390" as="sourcePoint" />
            <mxPoint x="670" y="320" as="targetPoint" />
          </mxGeometry>
        </mxCell>
        <mxCell id="I_kCTtkcu6_9nDNnF5j1-6" value="" style="endArrow=none;html=1;rounded=0;" edge="1" parent="1">
          <mxGeometry width="50" height="50" relative="1" as="geometry">
            <mxPoint x="128" y="318.5039114391144" as="sourcePoint" />
            <mxPoint x="360" y="319.36" as="targetPoint" />
          </mxGeometry>
        </mxCell>
        <mxCell id="I_kCTtkcu6_9nDNnF5j1-7" value="" style="endArrow=none;html=1;rounded=0;" edge="1" parent="1" source="I_kCTtkcu6_9nDNnF5j1-1">
          <mxGeometry width="50" height="50" relative="1" as="geometry">
            <mxPoint x="420" y="280.0039114391144" as="sourcePoint" />
            <mxPoint x="400" y="80" as="targetPoint" />
          </mxGeometry>
        </mxCell>
        <mxCell id="I_kCTtkcu6_9nDNnF5j1-8" value="&lt;div&gt;ETH1&lt;/div&gt;&lt;div&gt;192.168.1.126&lt;br&gt;&lt;/div&gt;" style="text;html=1;align=center;verticalAlign=middle;resizable=0;points=[];autosize=1;strokeColor=none;fillColor=none;" vertex="1" parent="1">
          <mxGeometry x="420" y="250" width="100" height="40" as="geometry" />
        </mxCell>
        <mxCell id="I_kCTtkcu6_9nDNnF5j1-9" value="&lt;div&gt;ETH2&lt;/div&gt;&lt;div&gt;192.168.1.254&lt;br&gt;&lt;/div&gt;" style="text;html=1;align=center;verticalAlign=middle;resizable=0;points=[];autosize=1;strokeColor=none;fillColor=none;" vertex="1" parent="1">
          <mxGeometry x="420" y="330" width="100" height="40" as="geometry" />
        </mxCell>
        <mxCell id="I_kCTtkcu6_9nDNnF5j1-10" value="&lt;div&gt;ETH3&lt;/div&gt;&lt;div&gt;202.15.98.225&lt;br&gt;&lt;/div&gt;" style="text;html=1;align=center;verticalAlign=middle;resizable=0;points=[];autosize=1;strokeColor=none;fillColor=none;" vertex="1" parent="1">
          <mxGeometry x="260" y="330" width="100" height="40" as="geometry" />
        </mxCell>
        <mxCell id="I_kCTtkcu6_9nDNnF5j1-11" value="&lt;div&gt;ETH0&lt;/div&gt;&lt;div&gt;192.168.1.62&lt;br&gt;&lt;/div&gt;" style="text;html=1;align=center;verticalAlign=middle;resizable=0;points=[];autosize=1;strokeColor=none;fillColor=none;" vertex="1" parent="1">
          <mxGeometry x="265" y="250" width="90" height="40" as="geometry" />
        </mxCell>
        <mxCell id="I_kCTtkcu6_9nDNnF5j1-12" value="192.168.1.64/26" style="text;html=1;align=center;verticalAlign=middle;resizable=0;points=[];autosize=1;strokeColor=none;fillColor=none;" vertex="1" parent="1">
          <mxGeometry x="345" y="55" width="110" height="30" as="geometry" />
        </mxCell>
        <mxCell id="I_kCTtkcu6_9nDNnF5j1-13" value="192.168.1.128/25" style="text;html=1;align=center;verticalAlign=middle;resizable=0;points=[];autosize=1;strokeColor=none;fillColor=none;" vertex="1" parent="1">
          <mxGeometry x="665" y="300" width="120" height="30" as="geometry" />
        </mxCell>
        <mxCell id="I_kCTtkcu6_9nDNnF5j1-14" value="192.168.1.0/26" style="text;html=1;align=center;verticalAlign=middle;resizable=0;points=[];autosize=1;strokeColor=none;fillColor=none;" vertex="1" parent="1">
          <mxGeometry x="20" y="304" width="100" height="30" as="geometry" />
        </mxCell>
        <mxCell id="I_kCTtkcu6_9nDNnF5j1-15" value="202.15.98.224/30" style="text;html=1;align=center;verticalAlign=middle;resizable=0;points=[];autosize=1;strokeColor=none;fillColor=none;" vertex="1" parent="1">
          <mxGeometry x="400" y="420" width="120" height="30" as="geometry" />
        </mxCell>
        <mxCell id="I_kCTtkcu6_9nDNnF5j1-16" value="202.15.98.226" style="text;html=1;align=center;verticalAlign=middle;resizable=0;points=[];autosize=1;strokeColor=none;fillColor=none;" vertex="1" parent="1">
          <mxGeometry x="290" y="485" width="100" height="30" as="geometry" />
        </mxCell>
      </root>
    </mxGraphModel>
  </diagram>
</mxfile>
